<?xml version="1.0" encoding="iso-8859-1"?>
<!-- Generator: Adobe Illustrator 17.1.0, SVG Export Plug-In . SVG Version: 6.00 Build 0)  -->
<!DOCTYPE svg PUBLIC "-//W3C//DTD SVG 1.1//EN" "http://www.w3.org/Graphics/SVG/1.1/DTD/svg11.dtd">
<svg version="1.1" id="Capa_1" xmlns="http://www.w3.org/2000/svg" xmlns:xlink="http://www.w3.org/1999/xlink" x="0px" y="0px"
	 viewBox="0 0 294 294" style="enable-background:new 0 0 294 294;" xml:space="preserve">
<path d="M147,0C65.944,0,0,65.944,0,147s65.944,147,147,147s147-65.944,147-147S228.056,0,147,0z M147,264
	c-64.514,0-117-52.486-117-117S82.486,30,147,30s117,52.486,117,117S211.514,264,147,264z M147,49.5
	c-53.762,0-97.5,43.738-97.5,97.5s43.738,97.5,97.5,97.5s97.5-43.738,97.5-97.5S200.762,49.5,147,49.5z M147,214.5
	c-37.22,0-67.5-30.28-67.5-67.5s30.28-67.5,67.5-67.5s67.5,30.28,67.5,67.5S184.22,214.5,147,214.5z M147,99
	c-26.467,0-48,21.533-48,48s21.533,48,48,48s48-21.533,48-48S173.467,99,147,99z M147,165c-9.925,0-18-8.075-18-18s8.075-18,18-18
	s18,8.075,18,18S156.925,165,147,165z"/>
<g>
</g>
<g>
</g>
<g>
</g>
<g>
</g>
<g>
</g>
<g>
</g>
<g>
</g>
<g>
</g>
<g>
</g>
<g>
</g>
<g>
</g>
<g>
</g>
<g>
</g>
<g>
</g>
<g>
</g>
</svg>
